{
	"asset":{
		"generator":"Khronos glTF Blender I/O v5.1.19",
		"version":"2.0"
	},
	"scene":0,
	"scenes":[
		{
			"name":"Scene",
			"nodes":[
				0,
				1,
				2,
				3,
				4,
				5
			]
		}
	],
	"nodes":[
		{
			"name":"_Hemi_1.002",
			"translation":[
				0,
				47.0120735168457,
				0
			]
		},
		{
			"name":"_Hemi_2.002",
			"rotation":[
				0,
				0,
				1,
				1.6292068494294654e-07
			],
			"translation":[
				0,
				-19.727153778076172,
				0
			]
		},
		{
			"mesh":0,
			"name":"DC8_AFRC_AIR_0824",
			"scale":[
				2.509037494659424,
				2.509037494659424,
				2.509037494659424
			],
			"translation":[
				0,
				3.7635185718536377,
				0
			]
		},
		{
			"name":"Default light.001"
		},
		{
			"name":"_Hemi_1.003",
			"translation":[
				0,
				47.0120735168457,
				0
			]
		},
		{
			"name":"_Hemi_2.003",
			"rotation":[
				0,
				0,
				1,
				1.6292068494294654e-07
			],
			"translation":[
				0,
				-19.727153778076172,
				0
			]
		}
	],
	"materials":[
		{
			"name":"PaintM.002",
			"normalTexture":{
				"index":0
			},
			"occlusionTexture":{
				"index":1
			},
			"pbrMetallicRoughness":{
				"baseColorTexture":{
					"index":2
				},
				"metallicRoughnessTexture":{
					"index":1
				}
			}
		},
		{
			"name":"MetalM.002",
			"occlusionTexture":{
				"index":3
			},
			"pbrMetallicRoughness":{
				"baseColorTexture":{
					"index":4
				},
				"metallicRoughnessTexture":{
					"index":3
				}
			}
		},
		{
			"name":"GlassM.002",
			"occlusionTexture":{
				"index":5
			},
			"pbrMetallicRoughness":{
				"baseColorTexture":{
					"index":6
				},
				"metallicRoughnessTexture":{
					"index":5
				}
			}
		},
		{
			"name":"MetalPM.002",
			"occlusionTexture":{
				"index":7
			},
			"pbrMetallicRoughness":{
				"baseColorTexture":{
					"index":8
				},
				"metallicRoughnessTexture":{
					"index":7
				}
			}
		},
		{
			"name":"PaintPM.002",
			"normalTexture":{
				"index":9
			},
			"occlusionTexture":{
				"index":10
			},
			"pbrMetallicRoughness":{
				"baseColorTexture":{
					"index":11
				},
				"metallicRoughnessTexture":{
					"index":10
				}
			}
		},
		{
			"name":"GlassPM.002",
			"occlusionTexture":{
				"index":12
			},
			"pbrMetallicRoughness":{
				"baseColorTexture":{
					"index":13
				},
				"metallicRoughnessTexture":{
					"index":12
				}
			}
		}
	],
	"meshes":[
		{
			"name":"DC8_AFRC_AIR_0824.002",
			"primitives":[
				{
					"attributes":{
						"POSITION":0,
						"NORMAL":1,
						"TEXCOORD_0":2
					},
					"indices":3,
					"material":0
				},
				{
					"attributes":{
						"POSITION":4,
						"NORMAL":5,
						"TEXCOORD_0":6
					},
					"indices":7,
					"material":1
				},
				{
					"attributes":{
						"POSITION":8,
						"NORMAL":9,
						"TEXCOORD_0":10
					},
					"indices":11,
					"material":2
				},
				{
					"attributes":{
						"POSITION":12,
						"NORMAL":13,
						"TEXCOORD_0":14
					},
					"indices":15,
					"material":3
				},
				{
					"attributes":{
						"POSITION":16,
						"NORMAL":17,
						"TEXCOORD_0":18
					},
					"indices":19,
					"material":4
				},
				{
					"attributes":{
						"POSITION":20,
						"NORMAL":21,
						"TEXCOORD_0":22
					},
					"indices":23,
					"material":5
				}
			]
		}
	],
	"textures":[
		{
			"sampler":0,
			"source":0
		},
		{
			"sampler":0,
			"source":1
		},
		{
			"sampler":0,
			"source":2
		},
		{
			"sampler":0,
			"source":1
		},
		{
			"sampler":0,
			"source":2
		},
		{
			"sampler":0,
			"source":1
		},
		{
			"sampler":0,
			"source":2
		},
		{
			"sampler":0,
			"source":3
		},
		{
			"sampler":0,
			"source":4
		},
		{
			"sampler":0,
			"source":5
		},
		{
			"sampler":0,
			"source":3
		},
		{
			"sampler":0,
			"source":4
		},
		{
			"sampler":0,
			"source":3
		},
		{
			"sampler":0,
			"source":4
		}
	],
	"images":[
		{
			"mimeType":"image/png",
			"name":"Image_0",
			"uri":"Image_0.png"
		},
		{
			"mimeType":"image/jpeg",
			"name":"Image_1",
			"uri":"Image_1.jpg"
		},
		{
			"mimeType":"image/jpeg",
			"name":"Image_2",
			"uri":"Image_2.jpg"
		},
		{
			"mimeType":"image/jpeg",
			"name":"Image_3",
			"uri":"Image_3.jpg"
		},
		{
			"mimeType":"image/jpeg",
			"name":"Image_4",
			"uri":"Image_4.jpg"
		},
		{
			"mimeType":"image/png",
			"name":"Image_5",
			"uri":"Image_5.png"
		}
	],
	"accessors":[
		{
			"bufferView":0,
			"componentType":5126,
			"count":83856,
			"max":[
				22.609771728515625,
				9.445889472961426,
				22.68936538696289
			],
			"min":[
				-22.609771728515625,
				-2.539856195449829,
				-25.323999404907227
			],
			"type":"VEC3"
		},
		{
			"bufferView":1,
			"componentType":5126,
			"count":83856,
			"type":"VEC3"
		},
		{
			"bufferView":2,
			"componentType":5126,
			"count":83856,
			"type":"VEC2"
		},
		{
			"bufferView":3,
			"componentType":5125,
			"count":83856,
			"type":"SCALAR"
		},
		{
			"bufferView":4,
			"componentType":5126,
			"count":21072,
			"max":[
				14.590513229370117,
				0.47863295674324036,
				7.5763468742370605
			],
			"min":[
				-14.59043025970459,
				-2.325430393218994,
				-3.8911778926849365
			],
			"type":"VEC3"
		},
		{
			"bufferView":5,
			"componentType":5126,
			"count":21072,
			"type":"VEC3"
		},
		{
			"bufferView":6,
			"componentType":5126,
			"count":21072,
			"type":"VEC2"
		},
		{
			"bufferView":7,
			"componentType":5123,
			"count":21072,
			"type":"SCALAR"
		},
		{
			"bufferView":8,
			"componentType":5126,
			"count":8316,
			"max":[
				1.8447375297546387,
				1.9799517393112183,
				20.486757278442383
			],
			"min":[
				-1.8447376489639282,
				1.066853404045105,
				-14.976724624633789
			],
			"type":"VEC3"
		},
		{
			"bufferView":9,
			"componentType":5126,
			"count":8316,
			"type":"VEC3"
		},
		{
			"bufferView":10,
			"componentType":5126,
			"count":8316,
			"type":"VEC2"
		},
		{
			"bufferView":11,
			"componentType":5123,
			"count":8316,
			"type":"SCALAR"
		},
		{
			"bufferView":12,
			"componentType":5126,
			"count":1068,
			"max":[
				1.0717297792434692,
				2.6967358589172363,
				21.60356330871582
			],
			"min":[
				-1.13316011428833,
				-1.398687720298767,
				-10.822362899780273
			],
			"type":"VEC3"
		},
		{
			"bufferView":13,
			"componentType":5126,
			"count":1068,
			"type":"VEC3"
		},
		{
			"bufferView":14,
			"componentType":5126,
			"count":1068,
			"type":"VEC2"
		},
		{
			"bufferView":15,
			"componentType":5123,
			"count":1068,
			"type":"SCALAR"
		},
		{
			"bufferView":16,
			"componentType":5126,
			"count":2718,
			"max":[
				1.1830995082855225,
				3.157811164855957,
				21.52765655517578
			],
			"min":[
				-1.1894603967666626,
				-1.609792947769165,
				-14.251773834228516
			],
			"type":"VEC3"
		},
		{
			"bufferView":17,
			"componentType":5126,
			"count":2718,
			"type":"VEC3"
		},
		{
			"bufferView":18,
			"componentType":5126,
			"count":2718,
			"type":"VEC2"
		},
		{
			"bufferView":19,
			"componentType":5123,
			"count":2718,
			"type":"SCALAR"
		},
		{
			"bufferView":20,
			"componentType":5126,
			"count":792,
			"max":[
				1.1323578357696533,
				2.8245837688446045,
				14.481754302978516
			],
			"min":[
				-1.1337943077087402,
				-1.3265436887741089,
				-10.82376766204834
			],
			"type":"VEC3"
		},
		{
			"bufferView":21,
			"componentType":5126,
			"count":792,
			"type":"VEC3"
		},
		{
			"bufferView":22,
			"componentType":5126,
			"count":792,
			"type":"VEC2"
		},
		{
			"bufferView":23,
			"componentType":5123,
			"count":792,
			"type":"SCALAR"
		}
	],
	"bufferViews":[
		{
			"buffer":0,
			"byteLength":1006272,
			"byteOffset":0,
			"target":34962
		},
		{
			"buffer":0,
			"byteLength":1006272,
			"byteOffset":1006272,
			"target":34962
		},
		{
			"buffer":0,
			"byteLength":670848,
			"byteOffset":2012544,
			"target":34962
		},
		{
			"buffer":0,
			"byteLength":335424,
			"byteOffset":2683392,
			"target":34963
		},
		{
			"buffer":0,
			"byteLength":252864,
			"byteOffset":3018816,
			"target":34962
		},
		{
			"buffer":0,
			"byteLength":252864,
			"byteOffset":3271680,
			"target":34962
		},
		{
			"buffer":0,
			"byteLength":168576,
			"byteOffset":3524544,
			"target":34962
		},
		{
			"buffer":0,
			"byteLength":42144,
			"byteOffset":3693120,
			"target":34963
		},
		{
			"buffer":0,
			"byteLength":99792,
			"byteOffset":3735264,
			"target":34962
		},
		{
			"buffer":0,
			"byteLength":99792,
			"byteOffset":3835056,
			"target":34962
		},
		{
			"buffer":0,
			"byteLength":66528,
			"byteOffset":3934848,
			"target":34962
		},
		{
			"buffer":0,
			"byteLength":16632,
			"byteOffset":4001376,
			"target":34963
		},
		{
			"buffer":0,
			"byteLength":12816,
			"byteOffset":4018008,
			"target":34962
		},
		{
			"buffer":0,
			"byteLength":12816,
			"byteOffset":4030824,
			"target":34962
		},
		{
			"buffer":0,
			"byteLength":8544,
			"byteOffset":4043640,
			"target":34962
		},
		{
			"buffer":0,
			"byteLength":2136,
			"byteOffset":4052184,
			"target":34963
		},
		{
			"buffer":0,
			"byteLength":32616,
			"byteOffset":4054320,
			"target":34962
		},
		{
			"buffer":0,
			"byteLength":32616,
			"byteOffset":4086936,
			"target":34962
		},
		{
			"buffer":0,
			"byteLength":21744,
			"byteOffset":4119552,
			"target":34962
		},
		{
			"buffer":0,
			"byteLength":5436,
			"byteOffset":4141296,
			"target":34963
		},
		{
			"buffer":0,
			"byteLength":9504,
			"byteOffset":4146732,
			"target":34962
		},
		{
			"buffer":0,
			"byteLength":9504,
			"byteOffset":4156236,
			"target":34962
		},
		{
			"buffer":0,
			"byteLength":6336,
			"byteOffset":4165740,
			"target":34962
		},
		{
			"buffer":0,
			"byteLength":1584,
			"byteOffset":4172076,
			"target":34963
		}
	],
	"samplers":[
		{
			"magFilter":9729,
			"minFilter":9987
		}
	],
	"buffers":[
		{
			"byteLength":4173660,
			"uri":"DC8_AFRC_AIR_0824.bin"
		}
	]
}
